<?xml version="1.0" encoding="UTF-8"?>
<svg id="Layer_2" data-name="Layer 2" xmlns="http://www.w3.org/2000/svg" xmlns:xlink="http://www.w3.org/1999/xlink" viewBox="0 0 386.35 140.4">
  <defs>
    <style>
      .cls-1 {
        fill: #fff;
      }
    </style>
  </defs>
  <g id="Layer_1-2" data-name="Layer 1">
    <g>
      <g id="Layer_1-2" data-name="Layer 1-2">
        <g>
          <path class="cls-1" d="M205.37,56.21c5.45,0,9.84,1.6,13.16,4.8,3.32,3.2,4.99,7.43,4.99,12.68v29.46h-12.8v-25.56c0-2.85-.71-5.03-2.07-6.84-1.17-1.55-3.67-3.53-6.25-3.62-2.83-.1-5.96-.45-10.16,0v36.02h-12.49V56.21c12.3-.15,18,0,25.61,0Z"/>
          <path class="cls-1" d="M253.72,56.21c5.81,0,15.3-.32,27.16,0v46.94h-12.94v-3.23c-3.83,3.11-10.33,4.65-15.12,4.65-6.05,0-11.01-2.21-14.87-6.65s-5.79-10.36-5.79-17.77c.12-7.35,2.07-13.17,5.84-17.49,3.78-4.31,9.02-6.46,15.73-6.46h0Zm1.97,10.93c-7.54,0-11.32,4.46-11.32,13.4,0,3.87,.96,7,2.88,9.4s4.46,3.61,7.64,3.61c3.83,0,10.95-.36,14.08-9.63v-16.49c-3.83-.38-10.4-.3-13.27-.3Z"/>
          <path class="cls-1" d="M343.85,56.21c5.75,0,10.27,1.41,13.57,4.23s4.94,7.24,4.94,13.25v29.46h-12.49v-25.56c0-6.27-3-9.4-8.98-9.4-.93,0-1.88,.04-2.87,.12-3.03,.24-4.54,2.78-4.54,5.82v29.03h-12.49v-25.56c0-6.27-3.74-10.68-9.67-10.68-2.4,0-2.38,.16-5.5,.47v35.76h-13.77V56.21c10.75-.64,14.08,0,22.22,0,4.61,0,12.51,1.36,15.52,5.21,4.82-3.49,7.63-5.21,14.04-5.21h0Z"/>
          <path class="cls-1" d="M379.55,48.55c-1.93,0-3.55-.67-4.85-2.02-1.3-1.35-1.95-3.02-1.95-5.01s.65-3.75,1.95-5.12c1.3-1.37,2.92-2.06,4.85-2.06s3.49,.69,4.81,2.06c1.32,1.37,1.98,3.08,1.98,5.12s-.66,3.66-1.98,5.01c-1.32,1.35-2.93,2.02-4.81,2.02Z"/>
          <rect class="cls-1" x="373.86" y="56.21" width="12.49" height="46.94"/>
        </g>
      </g>
      <image width="646" height="646" transform="scale(.22)" xlink:href="../NamiPay Icon.png"/>
    </g>
  </g>
</svg>